<svg xmlns="http://www.w3.org/2000/svg" width="1080" height="694" viewBox="0 0 1080 694">
<style>
text{font-family:Arial,'Noto Sans CJK SC','Microsoft YaHei',sans-serif;fill:#172033}
.title{font-size:22px;font-weight:700}.subtitle{font-size:13px;fill:#5b6475}
.label{font-size:13px}.small{font-size:11px;fill:#5b6475}.tiny{font-size:10px;fill:#5b6475}
.lane{fill:#f6f8fb;stroke:#d6dde8}.box{rx:12;ry:12;stroke:#29415f;stroke-width:1.2}
</style>
<rect width="1080" height="694" fill="#ffffff"/>
<text x="40" y="42" class="title">阶段耗时均值</text>
<text x="40" y="66" class="subtitle">单位 ms；横条为平均值，灰线为 p50 到 max</text>
<line x1="270.0" y1="78" x2="270.0" y2="644" stroke="#edf1f7"/>
<text x="262.0" y="663" class="tiny">0</text>
<line x1="395.0" y1="78" x2="395.0" y2="644" stroke="#edf1f7"/>
<text x="387.0" y="663" class="tiny">50</text>
<line x1="520.0" y1="78" x2="520.0" y2="644" stroke="#edf1f7"/>
<text x="512.0" y="663" class="tiny">100</text>
<line x1="645.0" y1="78" x2="645.0" y2="644" stroke="#edf1f7"/>
<text x="637.0" y="663" class="tiny">150</text>
<line x1="770.0" y1="78" x2="770.0" y2="644" stroke="#edf1f7"/>
<text x="762.0" y="663" class="tiny">200</text>
<line x1="895.0" y1="78" x2="895.0" y2="644" stroke="#edf1f7"/>
<text x="887.0" y="663" class="tiny">250</text>
<line x1="1020.0" y1="78" x2="1020.0" y2="644" stroke="#edf1f7"/>
<text x="1012.0" y="663" class="tiny">300</text>
<text x="40" y="106" class="label">vision.encode</text>
<rect x="270" y="88" width="294.2" height="22" fill="#4c78a8" rx="5"/>
<line x1="561.2" y1="119" x2="603.0" y2="119" stroke="#7f8897" stroke-width="2"/>
<circle cx="561.2" cy="119" r="3" fill="#7f8897"/>
<circle cx="603.0" cy="119" r="3" fill="#7f8897"/>
<text x="572.2" y="104" class="small">117.7 ms</text>
<text x="940" y="106" class="tiny">n=23 p50=116.5 max=133.2</text>
<text x="40" y="148" class="label">audio.encode</text>
<rect x="270" y="130" width="20.2" height="22" fill="#72b7b2" rx="5"/>
<line x1="289.1" y1="161" x2="308.4" y2="161" stroke="#7f8897" stroke-width="2"/>
<circle cx="289.1" cy="161" r="3" fill="#7f8897"/>
<circle cx="308.4" cy="161" r="3" fill="#7f8897"/>
<text x="298.2" y="146" class="small">8.1 ms</text>
<text x="940" y="148" class="tiny">n=35 p50=7.6 max=15.4</text>
<text x="40" y="190" class="label">queue.llm.wait_space</text>
<rect x="270" y="172" width="0.3" height="22" fill="#c7e9c0" rx="5"/>
<line x1="270.3" y1="203" x2="271.1" y2="203" stroke="#7f8897" stroke-width="2"/>
<circle cx="270.3" cy="203" r="3" fill="#7f8897"/>
<circle cx="271.1" cy="203" r="3" fill="#7f8897"/>
<text x="278.3" y="188" class="small">0.1 ms</text>
<text x="940" y="190" class="tiny">n=35 p50=0.1 max=0.5</text>
<text x="40" y="232" class="label">queue.llm.enqueue</text>
<rect x="270" y="214" width="0.3" height="22" fill="#74c476" rx="5"/>
<line x1="270.2" y1="245" x2="272.1" y2="245" stroke="#7f8897" stroke-width="2"/>
<circle cx="270.2" cy="245" r="3" fill="#7f8897"/>
<circle cx="272.1" cy="245" r="3" fill="#7f8897"/>
<text x="278.3" y="230" class="small">0.1 ms</text>
<text x="940" y="232" class="tiny">n=34 p50=0.1 max=0.9</text>
<text x="40" y="274" class="label">llm.prefill</text>
<rect x="270" y="256" width="100.8" height="22" fill="#b279a2" rx="5"/>
<line x1="369.2" y1="287" x2="404.8" y2="287" stroke="#7f8897" stroke-width="2"/>
<circle cx="369.2" cy="287" r="3" fill="#7f8897"/>
<circle cx="404.8" cy="287" r="3" fill="#7f8897"/>
<text x="378.8" y="272" class="small">40.3 ms</text>
<text x="940" y="274" class="tiny">n=34 p50=39.7 max=53.9</text>
<text x="40" y="316" class="label">wait.llm_prefill_done</text>
<rect x="270" y="298" width="92.9" height="22" fill="#f58518" rx="5"/>
<line x1="367.9" y1="329" x2="376.6" y2="329" stroke="#7f8897" stroke-width="2"/>
<circle cx="367.9" cy="329" r="3" fill="#7f8897"/>
<circle cx="376.6" cy="329" r="3" fill="#7f8897"/>
<text x="370.9" y="314" class="small">37.1 ms</text>
<text x="940" y="316" class="tiny">n=35 p50=39.1 max=42.7</text>
<text x="40" y="358" class="label">llm.decode</text>
<rect x="270" y="340" width="94.7" height="22" fill="#e45756" rx="5"/>
<line x1="360.8" y1="371" x2="446.9" y2="371" stroke="#7f8897" stroke-width="2"/>
<circle cx="360.8" cy="371" r="3" fill="#7f8897"/>
<circle cx="446.9" cy="371" r="3" fill="#7f8897"/>
<text x="372.7" y="356" class="small">37.9 ms</text>
<text x="940" y="358" class="tiny">n=33 p50=36.3 max=70.8</text>
<text x="40" y="400" class="label">queue.tts.wait_space</text>
<rect x="270" y="382" width="0.3" height="22" fill="#bae4b3" rx="5"/>
<line x1="270.3" y1="413" x2="271.3" y2="413" stroke="#7f8897" stroke-width="2"/>
<circle cx="270.3" cy="413" r="3" fill="#7f8897"/>
<circle cx="271.3" cy="413" r="3" fill="#7f8897"/>
<text x="278.3" y="398" class="small">0.1 ms</text>
<text x="940" y="400" class="tiny">n=33 p50=0.1 max=0.5</text>
<text x="40" y="442" class="label">queue.tts.enqueue</text>
<rect x="270" y="424" width="0.3" height="22" fill="#8cd17d" rx="5"/>
<line x1="270.3" y1="455" x2="271.8" y2="455" stroke="#7f8897" stroke-width="2"/>
<circle cx="270.3" cy="455" r="3" fill="#7f8897"/>
<circle cx="271.8" cy="455" r="3" fill="#7f8897"/>
<text x="278.3" y="440" class="small">0.1 ms</text>
<text x="940" y="442" class="tiny">n=33 p50=0.1 max=0.7</text>
<text x="40" y="484" class="label">tts.infer</text>
<rect x="270" y="466" width="543.4" height="22" fill="#54a24b" rx="5"/>
<line x1="843.1" y1="497" x2="994.0" y2="497" stroke="#7f8897" stroke-width="2"/>
<circle cx="843.1" cy="497" r="3" fill="#7f8897"/>
<circle cx="994.0" cy="497" r="3" fill="#7f8897"/>
<text x="821.4" y="482" class="small">217.4 ms</text>
<text x="940" y="484" class="tiny">n=17 p50=229.3 max=289.6</text>
<text x="40" y="526" class="label">queue.t2w.enqueue</text>
<rect x="270" y="508" width="1.3" height="22" fill="#9ecae9" rx="5"/>
<line x1="270.9" y1="539" x2="276.3" y2="539" stroke="#7f8897" stroke-width="2"/>
<circle cx="270.9" cy="539" r="3" fill="#7f8897"/>
<circle cx="276.3" cy="539" r="3" fill="#7f8897"/>
<text x="279.3" y="524" class="small">0.5 ms</text>
<text x="940" y="526" class="tiny">n=16 p50=0.4 max=2.5</text>
<text x="40" y="568" class="label">t2w.infer</text>
<rect x="270" y="550" width="199.0" height="22" fill="#3182bd" rx="5"/>
<line x1="473.3" y1="581" x2="520.4" y2="581" stroke="#7f8897" stroke-width="2"/>
<circle cx="473.3" cy="581" r="3" fill="#7f8897"/>
<circle cx="520.4" cy="581" r="3" fill="#7f8897"/>
<text x="477.0" y="566" class="small">79.6 ms</text>
<text x="940" y="568" class="tiny">n=17 p50=81.3 max=100.2</text>
<text x="40" y="610" class="label">t2w.write</text>
<rect x="270" y="592" width="0.7" height="22" fill="#9e9ac8" rx="5"/>
<line x1="270.7" y1="623" x2="270.9" y2="623" stroke="#7f8897" stroke-width="2"/>
<circle cx="270.7" cy="623" r="3" fill="#7f8897"/>
<circle cx="270.9" cy="623" r="3" fill="#7f8897"/>
<text x="278.7" y="608" class="small">0.3 ms</text>
<text x="940" y="610" class="tiny">n=11 p50=0.3 max=0.4</text>
</svg>
