<svg xmlns="http://www.w3.org/2000/svg" width="1180" height="560" viewBox="0 0 1180 560">
<style>
text{font-family:Arial,'Noto Sans CJK SC','Microsoft YaHei',sans-serif;fill:#172033}
.title{font-size:22px;font-weight:700}.subtitle{font-size:13px;fill:#5b6475}
.label{font-size:13px}.small{font-size:11px;fill:#5b6475}.tiny{font-size:10px;fill:#5b6475}
.lane{fill:#f6f8fb;stroke:#d6dde8}.box{rx:12;ry:12;stroke:#29415f;stroke-width:1.2}
</style>
<rect width="1180" height="560" fill="#ffffff"/>
<text x="40" y="42" class="title">逐 chunk API 延迟</text>
<text x="40" y="66" class="subtitle">蓝色=prefill，橙色=decode；圆点表示决策，绿=SPEAK，灰=LISTEN；紫线=n_past</text>
<line x1="70" y1="440.0" x2="1100" y2="440.0" stroke="#edf1f7"/>
<text x="30" y="444.0" class="tiny">0</text>
<line x1="70" y1="368.6" x2="1100" y2="368.6" stroke="#edf1f7"/>
<text x="30" y="372.6" class="tiny">50</text>
<line x1="70" y1="297.1" x2="1100" y2="297.1" stroke="#edf1f7"/>
<text x="30" y="301.1" class="tiny">100</text>
<line x1="70" y1="225.7" x2="1100" y2="225.7" stroke="#edf1f7"/>
<text x="30" y="229.7" class="tiny">150</text>
<line x1="70" y1="154.3" x2="1100" y2="154.3" stroke="#edf1f7"/>
<text x="30" y="158.3" class="tiny">200</text>
<line x1="70" y1="82.9" x2="1100" y2="82.9" stroke="#edf1f7"/>
<text x="30" y="86.9" class="tiny">250</text>
<rect x="70.0" y="160.0" width="25.7" height="280.0" fill="#4c78a8"/>
<rect x="70.0" y="158.6" width="25.7" height="1.4" fill="#f58518"/>
<circle cx="82.8" cy="151.6" r="3.2" fill="#8b95a5"/>
<text x="68.0" y="458" class="tiny">0</text>
<rect x="98.7" y="234.3" width="25.7" height="205.7" fill="#4c78a8"/>
<rect x="98.7" y="158.6" width="25.7" height="75.7" fill="#f58518"/>
<circle cx="111.5" cy="151.6" r="3.2" fill="#8b95a5"/>
<line x1="82.8" y1="434.8" x2="111.5" y2="421.8" stroke="#6f4e7c" stroke-width="1.5" opacity="0.65"/>
<rect x="127.4" y="260.0" width="25.7" height="180.0" fill="#4c78a8"/>
<rect x="127.4" y="207.1" width="25.7" height="52.9" fill="#f58518"/>
<circle cx="140.2" cy="200.1" r="3.2" fill="#8b95a5"/>
<line x1="111.5" y1="421.8" x2="140.2" y2="408.8" stroke="#6f4e7c" stroke-width="1.5" opacity="0.65"/>
<rect x="156.1" y="260.0" width="25.7" height="180.0" fill="#4c78a8"/>
<rect x="156.1" y="178.6" width="25.7" height="81.4" fill="#f58518"/>
<circle cx="168.9" cy="171.6" r="3.2" fill="#8b95a5"/>
<line x1="140.2" y1="408.8" x2="168.9" y2="395.4" stroke="#6f4e7c" stroke-width="1.5" opacity="0.65"/>
<rect x="184.8" y="257.1" width="25.7" height="182.9" fill="#4c78a8"/>
<rect x="184.8" y="132.9" width="25.7" height="124.3" fill="#f58518"/>
<circle cx="197.6" cy="125.9" r="3.2" fill="#2ca25f"/>
<line x1="168.9" y1="395.4" x2="197.6" y2="381.4" stroke="#6f4e7c" stroke-width="1.5" opacity="0.65"/>
<rect x="213.5" y="255.7" width="25.7" height="184.3" fill="#4c78a8"/>
<rect x="213.5" y="125.7" width="25.7" height="130.0" fill="#f58518"/>
<circle cx="226.3" cy="118.7" r="3.2" fill="#2ca25f"/>
<text x="211.5" y="458" class="tiny">5</text>
<line x1="197.6" y1="381.4" x2="226.3" y2="367.2" stroke="#6f4e7c" stroke-width="1.5" opacity="0.65"/>
<rect x="242.2" y="254.3" width="25.7" height="185.7" fill="#4c78a8"/>
<rect x="242.2" y="110.0" width="25.7" height="144.3" fill="#f58518"/>
<circle cx="255.0" cy="103.0" r="3.2" fill="#2ca25f"/>
<line x1="226.3" y1="367.2" x2="255.0" y2="353.0" stroke="#6f4e7c" stroke-width="1.5" opacity="0.65"/>
<rect x="270.9" y="251.4" width="25.7" height="188.6" fill="#4c78a8"/>
<rect x="270.9" y="90.0" width="25.7" height="161.4" fill="#f58518"/>
<circle cx="283.7" cy="83.0" r="3.2" fill="#2ca25f"/>
<line x1="255.0" y1="353.0" x2="283.7" y2="338.5" stroke="#6f4e7c" stroke-width="1.5" opacity="0.65"/>
<rect x="299.6" y="250.0" width="25.7" height="190.0" fill="#4c78a8"/>
<rect x="299.6" y="121.4" width="25.7" height="128.6" fill="#f58518"/>
<circle cx="312.4" cy="114.4" r="3.2" fill="#2ca25f"/>
<line x1="283.7" y1="338.5" x2="312.4" y2="324.5" stroke="#6f4e7c" stroke-width="1.5" opacity="0.65"/>
<rect x="328.2" y="254.3" width="25.7" height="185.7" fill="#4c78a8"/>
<rect x="328.2" y="101.4" width="25.7" height="152.9" fill="#f58518"/>
<circle cx="341.1" cy="94.4" r="3.2" fill="#2ca25f"/>
<line x1="312.4" y1="324.5" x2="341.1" y2="310.1" stroke="#6f4e7c" stroke-width="1.5" opacity="0.65"/>
<rect x="356.9" y="254.3" width="25.7" height="185.7" fill="#4c78a8"/>
<rect x="356.9" y="115.7" width="25.7" height="138.6" fill="#f58518"/>
<circle cx="369.8" cy="108.7" r="3.2" fill="#2ca25f"/>
<text x="354.9" y="458" class="tiny">10</text>
<line x1="341.1" y1="310.1" x2="369.8" y2="295.9" stroke="#6f4e7c" stroke-width="1.5" opacity="0.65"/>
<rect x="385.6" y="257.1" width="25.7" height="182.9" fill="#4c78a8"/>
<rect x="385.6" y="111.4" width="25.7" height="145.7" fill="#f58518"/>
<circle cx="398.5" cy="104.4" r="3.2" fill="#2ca25f"/>
<line x1="369.8" y1="295.9" x2="398.5" y2="281.7" stroke="#6f4e7c" stroke-width="1.5" opacity="0.65"/>
<rect x="414.3" y="257.1" width="25.7" height="182.9" fill="#4c78a8"/>
<rect x="414.3" y="125.7" width="25.7" height="131.4" fill="#f58518"/>
<circle cx="427.2" cy="118.7" r="3.2" fill="#2ca25f"/>
<line x1="398.5" y1="281.7" x2="427.2" y2="267.7" stroke="#6f4e7c" stroke-width="1.5" opacity="0.65"/>
<rect x="443.0" y="254.3" width="25.7" height="185.7" fill="#4c78a8"/>
<rect x="443.0" y="110.0" width="25.7" height="144.3" fill="#f58518"/>
<circle cx="455.9" cy="103.0" r="3.2" fill="#2ca25f"/>
<line x1="427.2" y1="267.7" x2="455.9" y2="253.5" stroke="#6f4e7c" stroke-width="1.5" opacity="0.65"/>
<rect x="471.7" y="254.3" width="25.7" height="185.7" fill="#4c78a8"/>
<rect x="471.7" y="111.4" width="25.7" height="142.9" fill="#f58518"/>
<circle cx="484.6" cy="104.4" r="3.2" fill="#2ca25f"/>
<line x1="455.9" y1="253.5" x2="484.6" y2="239.3" stroke="#6f4e7c" stroke-width="1.5" opacity="0.65"/>
<rect x="500.4" y="252.9" width="25.7" height="187.1" fill="#4c78a8"/>
<rect x="500.4" y="98.6" width="25.7" height="154.3" fill="#f58518"/>
<circle cx="513.3" cy="91.6" r="3.2" fill="#2ca25f"/>
<text x="498.4" y="458" class="tiny">15</text>
<line x1="484.6" y1="239.3" x2="513.3" y2="225.0" stroke="#6f4e7c" stroke-width="1.5" opacity="0.65"/>
<rect x="529.1" y="255.7" width="25.7" height="184.3" fill="#4c78a8"/>
<rect x="529.1" y="100.0" width="25.7" height="155.7" fill="#f58518"/>
<circle cx="542.0" cy="93.0" r="3.2" fill="#2ca25f"/>
<line x1="513.3" y1="225.0" x2="542.0" y2="210.6" stroke="#6f4e7c" stroke-width="1.5" opacity="0.65"/>
<rect x="557.8" y="245.7" width="25.7" height="194.3" fill="#4c78a8"/>
<rect x="557.8" y="132.9" width="25.7" height="112.9" fill="#f58518"/>
<circle cx="570.7" cy="125.9" r="3.2" fill="#2ca25f"/>
<line x1="542.0" y1="210.6" x2="570.7" y2="196.9" stroke="#6f4e7c" stroke-width="1.5" opacity="0.65"/>
<rect x="586.5" y="248.6" width="25.7" height="191.4" fill="#4c78a8"/>
<rect x="586.5" y="161.4" width="25.7" height="87.1" fill="#f58518"/>
<circle cx="599.3" cy="154.4" r="3.2" fill="#8b95a5"/>
<line x1="570.7" y1="196.9" x2="599.3" y2="183.6" stroke="#6f4e7c" stroke-width="1.5" opacity="0.65"/>
<rect x="615.2" y="260.0" width="25.7" height="180.0" fill="#4c78a8"/>
<rect x="615.2" y="175.7" width="25.7" height="84.3" fill="#f58518"/>
<circle cx="628.0" cy="168.7" r="3.2" fill="#8b95a5"/>
<line x1="599.3" y1="183.6" x2="628.0" y2="170.2" stroke="#6f4e7c" stroke-width="1.5" opacity="0.65"/>
<rect x="643.9" y="262.9" width="25.7" height="177.1" fill="#4c78a8"/>
<rect x="643.9" y="178.6" width="25.7" height="84.3" fill="#f58518"/>
<circle cx="656.7" cy="171.6" r="3.2" fill="#8b95a5"/>
<text x="641.9" y="458" class="tiny">20</text>
<line x1="628.0" y1="170.2" x2="656.7" y2="156.9" stroke="#6f4e7c" stroke-width="1.5" opacity="0.65"/>
<rect x="672.6" y="262.9" width="25.7" height="177.1" fill="#4c78a8"/>
<rect x="672.6" y="178.6" width="25.7" height="84.3" fill="#f58518"/>
<circle cx="685.4" cy="171.6" r="3.2" fill="#8b95a5"/>
<line x1="656.7" y1="156.9" x2="685.4" y2="143.5" stroke="#6f4e7c" stroke-width="1.5" opacity="0.65"/>
<rect x="701.3" y="261.4" width="25.7" height="178.6" fill="#4c78a8"/>
<rect x="701.3" y="177.1" width="25.7" height="84.3" fill="#f58518"/>
<circle cx="714.1" cy="170.1" r="3.2" fill="#8b95a5"/>
<line x1="685.4" y1="143.5" x2="714.1" y2="130.2" stroke="#6f4e7c" stroke-width="1.5" opacity="0.65"/>
<rect x="730.0" y="262.9" width="25.7" height="177.1" fill="#4c78a8"/>
<rect x="730.0" y="178.6" width="25.7" height="84.3" fill="#f58518"/>
<circle cx="742.8" cy="171.6" r="3.2" fill="#8b95a5"/>
<line x1="714.1" y1="130.2" x2="742.8" y2="116.9" stroke="#6f4e7c" stroke-width="1.5" opacity="0.65"/>
<rect x="758.7" y="262.9" width="25.7" height="177.1" fill="#4c78a8"/>
<rect x="758.7" y="177.1" width="25.7" height="85.7" fill="#f58518"/>
<circle cx="771.5" cy="170.1" r="3.2" fill="#8b95a5"/>
<line x1="742.8" y1="116.9" x2="771.5" y2="103.5" stroke="#6f4e7c" stroke-width="1.5" opacity="0.65"/>
<rect x="787.4" y="261.4" width="25.7" height="178.6" fill="#4c78a8"/>
<rect x="787.4" y="171.4" width="25.7" height="90.0" fill="#f58518"/>
<circle cx="800.2" cy="164.4" r="3.2" fill="#8b95a5"/>
<text x="785.4" y="458" class="tiny">25</text>
<line x1="771.5" y1="103.5" x2="800.2" y2="130.0" stroke="#6f4e7c" stroke-width="1.5" opacity="0.65"/>
<rect x="816.1" y="261.4" width="25.7" height="178.6" fill="#4c78a8"/>
<rect x="816.1" y="177.1" width="25.7" height="84.3" fill="#f58518"/>
<circle cx="828.9" cy="170.1" r="3.2" fill="#8b95a5"/>
<line x1="800.2" y1="130.0" x2="828.9" y2="116.7" stroke="#6f4e7c" stroke-width="1.5" opacity="0.65"/>
<rect x="844.8" y="261.4" width="25.7" height="178.6" fill="#4c78a8"/>
<rect x="844.8" y="175.7" width="25.7" height="85.7" fill="#f58518"/>
<circle cx="857.6" cy="168.7" r="3.2" fill="#8b95a5"/>
<line x1="828.9" y1="116.7" x2="857.6" y2="103.3" stroke="#6f4e7c" stroke-width="1.5" opacity="0.65"/>
<rect x="873.4" y="261.4" width="25.7" height="178.6" fill="#4c78a8"/>
<rect x="873.4" y="175.7" width="25.7" height="85.7" fill="#f58518"/>
<circle cx="886.3" cy="168.7" r="3.2" fill="#8b95a5"/>
<line x1="857.6" y1="103.3" x2="886.3" y2="90.0" stroke="#6f4e7c" stroke-width="1.5" opacity="0.65"/>
<rect x="902.1" y="261.4" width="25.7" height="178.6" fill="#4c78a8"/>
<rect x="902.1" y="171.4" width="25.7" height="90.0" fill="#f58518"/>
<circle cx="915.0" cy="164.4" r="3.2" fill="#8b95a5"/>
<line x1="886.3" y1="90.0" x2="915.0" y2="288.5" stroke="#6f4e7c" stroke-width="1.5" opacity="0.65"/>
<rect x="930.8" y="260.0" width="25.7" height="180.0" fill="#4c78a8"/>
<rect x="930.8" y="130.0" width="25.7" height="130.0" fill="#f58518"/>
<circle cx="943.7" cy="123.0" r="3.2" fill="#2ca25f"/>
<text x="928.8" y="458" class="tiny">30</text>
<line x1="915.0" y1="288.5" x2="943.7" y2="274.5" stroke="#6f4e7c" stroke-width="1.5" opacity="0.65"/>
<rect x="959.5" y="257.1" width="25.7" height="182.9" fill="#4c78a8"/>
<rect x="959.5" y="108.6" width="25.7" height="148.6" fill="#f58518"/>
<circle cx="972.4" cy="101.6" r="3.2" fill="#2ca25f"/>
<line x1="943.7" y1="274.5" x2="972.4" y2="260.3" stroke="#6f4e7c" stroke-width="1.5" opacity="0.65"/>
<rect x="988.2" y="258.6" width="25.7" height="181.4" fill="#4c78a8"/>
<rect x="988.2" y="144.3" width="25.7" height="114.3" fill="#f58518"/>
<circle cx="1001.1" cy="137.3" r="3.2" fill="#2ca25f"/>
<line x1="972.4" y1="260.3" x2="1001.1" y2="246.6" stroke="#6f4e7c" stroke-width="1.5" opacity="0.65"/>
<rect x="1016.9" y="258.6" width="25.7" height="181.4" fill="#4c78a8"/>
<rect x="1016.9" y="168.6" width="25.7" height="90.0" fill="#f58518"/>
<circle cx="1029.8" cy="161.6" r="3.2" fill="#8b95a5"/>
<line x1="1001.1" y1="246.6" x2="1029.8" y2="233.2" stroke="#6f4e7c" stroke-width="1.5" opacity="0.65"/>
<rect x="1045.6" y="261.4" width="25.7" height="178.6" fill="#4c78a8"/>
<rect x="1045.6" y="171.4" width="25.7" height="90.0" fill="#f58518"/>
<circle cx="1058.5" cy="164.4" r="3.2" fill="#8b95a5"/>
<line x1="1029.8" y1="233.2" x2="1058.5" y2="219.9" stroke="#6f4e7c" stroke-width="1.5" opacity="0.65"/>
<rect x="1074.3" y="261.4" width="25.7" height="178.6" fill="#4c78a8"/>
<rect x="1074.3" y="174.3" width="25.7" height="87.1" fill="#f58518"/>
<circle cx="1087.2" cy="167.3" r="3.2" fill="#8b95a5"/>
<text x="1072.3" y="458" class="tiny">35</text>
<line x1="1058.5" y1="219.9" x2="1087.2" y2="206.6" stroke="#6f4e7c" stroke-width="1.5" opacity="0.65"/>
<rect x="845" y="92" width="250" height="88" fill="#ffffff" stroke="#d6dde8" rx="10"/>
<rect x="865" y="112" width="22" height="12" fill="#4c78a8"/><text x="895" y="122" class="small">prefill</text>
<rect x="865" y="136" width="22" height="12" fill="#f58518"/><text x="895" y="146" class="small">decode</text>
<circle cx="876" cy="164" r="4" fill="#2ca25f"/><text x="895" y="168" class="small">SPEAK；紫线=n_past</text>
</svg>
